/* XPM */
static char * supertux_xpm[] = {
"32 32 421 2",
"  	c None",
". 	c #C2C7CB",
"+ 	c #C1C6CB",
"@ 	c #B8BFC5",
"# 	c #F8FBFD",
"$ 	c #B8BEC4",
"% 	c #B5BDC5",
"& 	c #F7FAFD",
"* 	c #F8FBFE",
"= 	c #B4BDC4",
"- 	c #ABB6BF",
"; 	c #EBEFF3",
"> 	c #E2E7EA",
", 	c #E2E6E9",
"' 	c #E3E6E9",
") 	c #ECF0F3",
"! 	c #AAB5BE",
"~ 	c #96A2AC",
"{ 	c #D7DADD",
"] 	c #8D8E90",
"^ 	c #5E5F60",
"/ 	c #565657",
"( 	c #494949",
"_ 	c #595A5B",
": 	c #919393",
"< 	c #D2D5D8",
"[ 	c #95A2AC",
"} 	c #9AA2A9",
"| 	c #9B9D9E",
"1 	c #252525",
"2 	c #353535",
"3 	c #3F3F3F",
"4 	c #2B2B2B",
"5 	c #212121",
"6 	c #131313",
"7 	c #161616",
"8 	c #999A9C",
"9 	c #9BA3AA",
"0 	c #A2AAB1",
"a 	c #959697",
"b 	c #1B1B1B",
"c 	c #767676",
"d 	c #666666",
"e 	c #4D4D4D",
"f 	c #3C3C3C",
"g 	c #1F1F1F",
"h 	c #191919",
"i 	c #0C0C0C",
"j 	c #080808",
"k 	c #A0A1A3",
"l 	c #A8AFB6",
"m 	c #B4BCC4",
"n 	c #D8DBDD",
"o 	c #1D1D1D",
"p 	c #6D6D6D",
"q 	c #4F4F4F",
"r 	c #393939",
"s 	c #939393",
"t 	c #EAEAEA",
"u 	c #6B6B6B",
"v 	c #151515",
"w 	c #8B8B8B",
"x 	c #777778",
"y 	c #DCDFE3",
"z 	c #B5BEC6",
"A 	c #A7B6C3",
"B 	c #EDF2F6",
"C 	c #A7A8A9",
"D 	c #2C2C2C",
"E 	c #878787",
"F 	c #616161",
"G 	c #484848",
"H 	c #4C4C4C",
"I 	c #FFFFFF",
"J 	c #181818",
"K 	c #424242",
"L 	c #101115",
"M 	c #0A0B11",
"N 	c #111215",
"O 	c #A7A7A7",
"P 	c #CECFD1",
"Q 	c #EFF4F8",
"R 	c #A7B6C2",
"S 	c #96ABBC",
"T 	c #F2F7FB",
"U 	c #D7E2EB",
"V 	c #7E8083",
"W 	c #505050",
"X 	c #7C7C7C",
"Y 	c #5B5B5B",
"Z 	c #434343",
"` 	c #242424",
" .	c #2A2513",
"..	c #BCA220",
"+.	c #CCB540",
"@.	c #A4933E",
"#.	c #A89B61",
"$.	c #A4A395",
"%.	c #BEC5D0",
"&.	c #DDE2E8",
"*.	c #8FA5B5",
"=.	c #99ADBF",
"-.	c #F5F9FB",
";.	c #EFF6FB",
">.	c #8EACC3",
",.	c #535557",
"'.	c #5A5A5A",
").	c #757575",
"!.	c #575757",
"~.	c #373737",
"{.	c #313336",
"].	c #A37B31",
"^.	c #D1A139",
"/.	c #F7C931",
"(.	c #FBD12D",
"_.	c #FDD62E",
":.	c #FFD63A",
"<.	c #DBB12C",
"[.	c #AD914F",
"}.	c #E5E9EF",
"|.	c #98ADBE",
"1.	c #9AAFBF",
"2.	c #F3F7FB",
"3.	c #F0F6FC",
"4.	c #9ABDD8",
"5.	c #94A5B2",
"6.	c #414141",
"7.	c #686868",
"8.	c #404040",
"9.	c #272829",
"0.	c #604829",
"a.	c #AB793D",
"b.	c #B37F40",
"c.	c #C69140",
"d.	c #CD9839",
"e.	c #AA803C",
"f.	c #948162",
"g.	c #8C9FAE",
"h.	c #E4EAF0",
"i.	c #F2F8FB",
"j.	c #A0B2C1",
"k.	c #E5F0F9",
"l.	c #C2DAEC",
"m.	c #80909B",
"n.	c #333333",
"o.	c #222222",
"p.	c #343434",
"q.	c #2E2E2E",
"r.	c #0B0C0E",
"s.	c #0F0D03",
"t.	c #181104",
"u.	c #140E03",
"v.	c #3D3E3E",
"w.	c #9FB2C4",
"x.	c #8199B0",
"y.	c #6D8292",
"z.	c #C5DDF0",
"A.	c #9CB0C1",
"B.	c #F3F8FC",
"C.	c #E6F0F8",
"D.	c #E3EDF5",
"E.	c #8CAAC1",
"F.	c #575A5D",
"G.	c #1A1A1A",
"H.	c #595959",
"I.	c #444444",
"J.	c #3E3E3E",
"K.	c #282828",
"L.	c #000000",
"M.	c #292929",
"N.	c #8E8E8E",
"O.	c #B8B8B8",
"P.	c #ADADAD",
"Q.	c #81868B",
"R.	c #A1BEDA",
"S.	c #6C849B",
"T.	c #93B4CD",
"U.	c #E4EDF5",
"V.	c #9BB0C1",
"W.	c #9AAFC1",
"X.	c #EAF1F6",
"Y.	c #D4E4F1",
"Z.	c #677C8E",
"`.	c #98BBD5",
" +	c #798691",
".+	c #141413",
"++	c #797979",
"@+	c #626262",
"#+	c #4A4A4A",
"$+	c #3D3D3D",
"%+	c #313131",
"&+	c #0D0D0D",
"*+	c #EDEDED",
"=+	c #FEFEFD",
"-+	c #828588",
";+	c #9FBEDA",
">+	c #6B849A",
",+	c #9CBFDA",
"'+	c #EAF0F6",
")+	c #A0B3C3",
"!+	c #C0CAD2",
"~+	c #6D8295",
"{+	c #8CB0D1",
"]+	c #718AA1",
"^+	c #6A7279",
"/+	c #363636",
"(+	c #898989",
"_+	c #6E6E6E",
":+	c #515151",
"<+	c #4B4B4B",
"[+	c #6A6A6A",
"}+	c #A8A8A8",
"|+	c #ECECEC",
"1+	c #676E75",
"2+	c #96BCDF",
"3+	c #7791AA",
"4+	c #8CAFD1",
"5+	c #6E8295",
"6+	c #BFC9D2",
"7+	c #F9FBFD",
"8+	c #93A3B2",
"9+	c #F1F8FE",
"0+	c #8195A7",
"a+	c #8DB5DA",
"b+	c #9ECAF3",
"c+	c #98BDE0",
"d+	c #414244",
"e+	c #7E7E7E",
"f+	c #5F5F5F",
"g+	c #474747",
"h+	c #454545",
"i+	c #B7B7B7",
"j+	c #8A8A8A",
"k+	c #030303",
"l+	c #F0F0F0",
"m+	c #FDFDFD",
"n+	c #8B8A89",
"o+	c #9FBCD7",
"p+	c #9DC9F2",
"q+	c #8EB4DA",
"r+	c #F2F8FE",
"s+	c #7E9AB1",
"t+	c #7997B3",
"u+	c #96C4ED",
"v+	c #9BC9F5",
"w+	c #98BCDE",
"x+	c #383838",
"y+	c #727272",
"z+	c #5E5E5E",
"A+	c #2D2D2D",
"B+	c #D0D0D0",
"C+	c #D7D7D7",
"D+	c #FAFAFA",
"E+	c #FCFCFC",
"F+	c #D6D6D5",
"G+	c #7B8C9D",
"H+	c #91BBE2",
"I+	c #98C5F0",
"J+	c #96C3ED",
"K+	c #7D9AB1",
"L+	c #8AB6E0",
"M+	c #92C1ED",
"N+	c #8EB2D4",
"O+	c #424343",
"P+	c #737373",
"Q+	c #545454",
"R+	c #C8C8C8",
"S+	c #DADADA",
"T+	c #8C8454",
"U+	c #A79C5E",
"V+	c #93B2D4",
"W+	c #85B1D9",
"X+	c #78A6D1",
"Y+	c #8DA7BF",
"Z+	c #BFAA5A",
"`+	c #4C4B42",
" @	c #656565",
".@	c #4E4E4E",
"+@	c #585858",
"@@	c #232323",
"#@	c #202020",
"$@	c #C9C9C9",
"%@	c #C6C6C6",
"&@	c #FBFBFB",
"*@	c #F3F3F3",
"=@	c #EAEAEC",
"-@	c #A08C2E",
";@	c #D5AD30",
">@	c #AC983F",
",@	c #809CBA",
"'@	c #9B8550",
")@	c #D8A63D",
"!@	c #D4B130",
"~@	c #464748",
"{@	c #141414",
"]@	c #818181",
"^@	c #CCCCCC",
"/@	c #F7F7F7",
"(@	c #F8F8F8",
"_@	c #F2F2F2",
":@	c #E2E2E2",
"<@	c #C1C2C5",
"[@	c #A5882B",
"}@	c #E1C344",
"|@	c #D9B32F",
"1@	c #868272",
"2@	c #8C7C58",
"3@	c #B98D2F",
"4@	c #EBBB3D",
"5@	c #9F8C33",
"6@	c #535357",
"7@	c #303030",
"8@	c #0E0E0E",
"9@	c #0B0B0B",
"0@	c #9D9D9D",
"a@	c #D4D4D4",
"b@	c #E3E3E3",
"c@	c #E6E6E6",
"d@	c #DDDDDD",
"e@	c #CDCDCD",
"f@	c #767675",
"g@	c #F7D331",
"h@	c #EBC938",
"i@	c #C0A02B",
"j@	c #9F7C28",
"k@	c #D29E3C",
"l@	c #FFDF3D",
"m@	c #6F663D",
"n@	c #4B4B4C",
"o@	c #272727",
"p@	c #0F0F0F",
"q@	c #020202",
"r@	c #A6A6A6",
"s@	c #BDBDBD",
"t@	c #C7C7C7",
"u@	c #A1A1A3",
"v@	c #897933",
"w@	c #EBC832",
"x@	c #C8A529",
"y@	c #8E8A7F",
"z@	c #8F8672",
"A@	c #B18827",
"B@	c #DDB036",
"C@	c #F8DA49",
"D@	c #625B3C",
"E@	c #3A3B42",
"F@	c #565656",
"G@	c #949494",
"H@	c #9B9B9B",
"I@	c #747475",
"J@	c #454029",
"K@	c #E1BD34",
"L@	c #C69E28",
"M@	c #918974",
"N@	c #555354",
"O@	c #453919",
"P@	c #B48B2A",
"Q@	c #E2B637",
"R@	c #FFE043",
"S@	c #D4BA38",
"T@	c #817539",
"U@	c #544F37",
"V@	c #413E30",
"W@	c #272728",
"X@	c #111317",
"Y@	c #57481B",
"Z@	c #D7AF31",
"`@	c #B08824",
" #	c #897F65",
".#	c #706F6F",
"+#	c #68686B",
"@#	c #85744A",
"##	c #B3872B",
"$#	c #D2A13A",
"%#	c #E9BD3A",
"&#	c #F5CD3B",
"*#	c #FDD43F",
"=#	c #FFDA36",
"-#	c #444030",
";#	c #21201F",
">#	c #22211F",
",#	c #2A2928",
"'#	c #302F2F",
")#	c #404244",
"!#	c #525149",
"~#	c #896C1C",
"{#	c #A58024",
"]#	c #96721E",
"^#	c #837653",
"/#	c #847249",
"(#	c #957320",
"_#	c #A47E30",
":#	c #9D7529",
"<#	c #9B7225",
"[#	c #987428",
"}#	c #88A2BB",
"|#	c #85AACB",
"1#	c #83A9CD",
"2#	c #7DA8D0",
"3#	c #79AAD7",
"4#	c #70A7DA",
"5#	c #749DC5",
"6#	c #806F35",
"7#	c #7A6119",
"8#	c #82754F",
"9#	c #7C9AB9",
"0#	c #78A4CF",
"a#	c #76A9D9",
"b#	c #69A9E4",
"c#	c #6DAFED",
"d#	c #6CAFEE",
"e#	c #6DB0EF",
"f#	c #6DB1F0",
"g#	c #62A5E3",
"h#	c #69AFEF",
"i#	c #69B0F0",
"j#	c #6AB0F0",
"k#	c #65AEF0",
"l#	c #65ADF0",
"m#	c #60ABEF",
"n#	c #60ABF0",
"                              . +                               ",
"                            @ # # $                             ",
"                          % & * # & =                           ",
"                        - ; > , ' > ) !                         ",
"                      ~ { ] ^ / ( _ : < [                       ",
"                    } | 1 2 ( 3 4 5 6 7 8 9                     ",
"                  0 a b c d e f g h i i j k l                   ",
"                m n o p c q r s t u v j w x y z                 ",
"              A B C D E F G H I J K L M N O P Q R               ",
"            S T U V W X Y G Z I `  ...+.@.#.$.%.&.*.            ",
"          =.-.;.>.,.'.).!.G K ~.{.].^./.(._.:.<.[.}.|.          ",
"        1.2.3.4.5.b 6.7.W ( 8.2 9.0.a.b.c.d.e.f.g.h.i.1.        ",
"      j.# k.l.m.n.o.p.6.!.H f q.g r.s.t.u.v.w.x.y.z.k.# j.      ",
"    A.B.C.D.E.F.G.H.H.I.J.8.~.K.J L.M.N.O.P.Q.R.S.T.U.C.B.V.    ",
"  W.X.Y.Z.`. +.+u ++@+#+$+r %+` &+g *+I I I =+-+;+>+,+Z.Y.'+W.  ",
")+# !+~+{+]+^+/+(+_+:+Z <+[+!.J L.}+I I I I I |+1+2+3+4+5+6+7+)+",
"8+9+0+a+b+c+d+d e+f+g+p.h+'.i+j+k+l+I I I I I m+n+o+p+b+q+0+r+8+",
"  s+t+u+v+w+x+++y+q z+1 A+n.e P.B+C+D+I I I I E+F+G+H+I+J+t+K+  ",
"      L+M+N+O+P+7.W I.Q+G.b v q.:+R+S+I I I I E+*+T+U+V+W+      ",
"      X+Y+Z+`+7. @.@$+%++@Z @@#@@+$@%@E+E+m+&@*@=@-@;@>@,@      ",
"        '@)@!@~@z+.@6.p.{@G.$+K D ]@^@*+/@(@_@:@<@[@}@|@1@      ",
"        2@3@4@5@6@q K $+7@o 8@9@L.0@%@a@b@c@d@e@f@g@h@i@        ",
"          j@k@l@m@n@I.3 /+o@7 p@q@H r@s@R+$@t@u@v@w@x@y@        ",
"          z@A@B@C@D@E@K f A+g v 8@k+F@G@0@H@I@J@K@L@M@          ",
"          N@O@P@Q@R@S@T@U@V@W@g h i L.{@h X@Y@Z@`@ #            ",
"          .#+#@###$#%#&#*#=#-#;#>#,#'#)#!#~#{#]#^#              ",
"                /#(#_#:#<#[#}#|#1#2#3#4#5#6#7#8#                ",
"                      9#0#a#b#c#d#e#f#f#g#                      ",
"                          h#i#i#i#j#i#                          ",
"                            k#l#k#k#                            ",
"                              m#n#                              ",
"                                                                "};
