<?xml version="1.0" encoding="UTF-8" standalone="no"?>
<svg
   xmlns:dc="http://purl.org/dc/elements/1.1/"
   xmlns:cc="http://creativecommons.org/ns#"
   xmlns:rdf="http://www.w3.org/1999/02/22-rdf-syntax-ns#"
   xmlns:svg="http://www.w3.org/2000/svg"
   xmlns="http://www.w3.org/2000/svg"
   xmlns:xlink="http://www.w3.org/1999/xlink"
   xmlns:sodipodi="http://sodipodi.sourceforge.net/DTD/sodipodi-0.dtd"
   xmlns:inkscape="http://www.inkscape.org/namespaces/inkscape"
   version="1.0"
   id="svg2"
   height="48"
   width="48"
   sodipodi:docname="supertux.svg"
   inkscape:version="0.92.3 (2405546, 2018-03-11)">
  <sodipodi:namedview
     pagecolor="#ffffff"
     bordercolor="#666666"
     borderopacity="1"
     objecttolerance="10"
     gridtolerance="10"
     guidetolerance="10"
     inkscape:pageopacity="0"
     inkscape:pageshadow="2"
     inkscape:window-width="2560"
     inkscape:window-height="1391"
     id="namedview57"
     showgrid="false"
     inkscape:zoom="9.8333333"
     inkscape:cx="21.853256"
     inkscape:cy="27.906927"
     inkscape:window-x="1680"
     inkscape:window-y="0"
     inkscape:window-maximized="1"
     inkscape:current-layer="svg2"
     units="px"
     showguides="false" />
  <defs
     id="defs4">
    <linearGradient
       inkscape:collect="always"
       id="linearGradient3021">
      <stop
         style="stop-color:#808080;stop-opacity:1;"
         offset="0"
         id="stop3017" />
      <stop
         style="stop-color:#808080;stop-opacity:0;"
         offset="1"
         id="stop3019" />
    </linearGradient>
    <linearGradient
       id="linearGradient1677-3">
      <stop
         style="stop-color:#fdfdfd;stop-opacity:1"
         offset="0"
         id="stop1673" />
      <stop
         style="stop-color:#a6a6a6;stop-opacity:1"
         offset="1"
         id="stop1675" />
    </linearGradient>
    <linearGradient
       id="linearGradient1641">
      <stop
         style="stop-color:#ffd700;stop-opacity:1;"
         offset="0"
         id="stop1637" />
      <stop
         style="stop-color:#998100;stop-opacity:1"
         offset="1"
         id="stop1639" />
    </linearGradient>
    <linearGradient
       id="linearGradient1623">
      <stop
         style="stop-color:#696969;stop-opacity:1;"
         offset="0"
         id="stop1619" />
      <stop
         style="stop-color:#696969;stop-opacity:0;"
         offset="1"
         id="stop1621" />
    </linearGradient>
    <linearGradient
       id="linearGradient1615">
      <stop
         style="stop-color:#151515;stop-opacity:1"
         offset="0"
         id="stop1611" />
      <stop
         style="stop-color:#000000;stop-opacity:0;"
         offset="1"
         id="stop1613" />
    </linearGradient>
    <pattern
       xlink:href="#pattern4225"
       id="pattern4230"
       patternTransform="matrix(0.2500002,0,0,0.2679014,-2.2265625e-5,-2.6171875e-6)" />
    <pattern
       xlink:href="#pattern4217"
       id="pattern4225"
       patternTransform="matrix(0.2500002,0,0,0.2679014,-1422.8572,-507.63782)" />
    <linearGradient
       id="linearGradient3224">
      <stop
         id="stop3226"
         offset="0"
         style="stop-color:#bbdfff;stop-opacity:1;" />
      <stop
         id="stop3228"
         offset="1"
         style="stop-color:#47a6ff;stop-opacity:1;" />
    </linearGradient>
    <linearGradient
       id="linearGradient3212">
      <stop
         style="stop-color:#c0e1ff;stop-opacity:1;"
         offset="0"
         id="stop3214" />
      <stop
         style="stop-color:#128dff;stop-opacity:1;"
         offset="1"
         id="stop3216" />
    </linearGradient>
    <linearGradient
       xlink:href="#linearGradient3212"
       id="linearGradient3218"
       x1="-90.15844"
       y1="485.35376"
       x2="-90.15844"
       y2="695.35144"
       gradientUnits="userSpaceOnUse" />
    <linearGradient
       xlink:href="#linearGradient3224"
       id="linearGradient3222"
       gradientUnits="userSpaceOnUse"
       x1="-194.70923"
       y1="485.85883"
       x2="18.207338"
       y2="698.77539"
       gradientTransform="matrix(0.9592449,0,0,0.9592449,-3.5760973,24.16056)" />
    <pattern
       patternUnits="userSpaceOnUse"
       width="320.00005"
       height="308.57143"
       patternTransform="translate(-1422.8572,-507.63782)"
       id="pattern4217">
      <rect
         y="142.85715"
         x="154.28577"
         height="165.71428"
         width="165.71428"
         id="rect4215"
         style="fill:#b3b3b3;fill-opacity:1;stroke:none" />
      <rect
         style="fill:#999999;fill-opacity:1;stroke:none"
         id="rect4213"
         width="165.71428"
         height="165.71428"
         x="0"
         y="142.85715" />
      <rect
         style="fill:#999999;fill-opacity:1;stroke:none"
         id="rect4211"
         width="165.71428"
         height="165.71428"
         x="154.28577"
         y="0" />
      <rect
         y="0"
         x="0"
         height="165.71428"
         width="165.71428"
         id="rect4209"
         style="fill:#b3b3b3;fill-opacity:1;stroke:none" />
    </pattern>
    <pattern
       patternUnits="userSpaceOnUse"
       width="80.000061"
       height="82.66671"
       patternTransform="translate(-1422.8572,-507.63782)"
       id="pattern4227">
      <rect
         id="rect4223"
         y="0"
         x="0"
         height="82.66671"
         width="80.000061"
         style="fill:url(#pattern4230);stroke:none" />
    </pattern>
    <linearGradient
       xlink:href="#linearGradient3212"
       id="linearGradient3477"
       gradientUnits="userSpaceOnUse"
       x1="-90.15844"
       y1="485.35376"
       x2="-90.15844"
       y2="695.35144"
       gradientTransform="matrix(0.15175718,0,0,0.15175718,13.316085,-56.023928)" />
    <linearGradient
       xlink:href="#linearGradient3224"
       id="linearGradient3479"
       gradientUnits="userSpaceOnUse"
       gradientTransform="matrix(0.1455723,0,0,0.1455723,12.773375,-52.357388)"
       x1="-194.70923"
       y1="485.85883"
       x2="18.207338"
       y2="698.77539" />
    <linearGradient
       gradientTransform="matrix(0.72626755,0,0,0.72626755,-136.28762,-426.88073)"
       xlink:href="#linearGradient1615"
       id="linearGradient1617"
       x1="213.66454"
       y1="621.00128"
       x2="211.44493"
       y2="620.15295"
       gradientUnits="userSpaceOnUse" />
    <linearGradient
       gradientTransform="matrix(0.72626755,0,0,0.72626755,-136.28762,-426.88073)"
       xlink:href="#linearGradient1623"
       id="linearGradient1625"
       x1="207.38356"
       y1="615.19177"
       x2="215.90883"
       y2="619.61139"
       gradientUnits="userSpaceOnUse" />
    <linearGradient
       gradientTransform="matrix(0.72626755,0,0,0.72626755,-136.28762,-426.88073)"
       xlink:href="#linearGradient1641"
       id="linearGradient1643"
       x1="228.806"
       y1="611.17914"
       x2="228.806"
       y2="614.41449"
       gradientUnits="userSpaceOnUse" />
    <linearGradient
       gradientTransform="matrix(0.72626755,0,0,0.72626755,-136.28762,-426.88073)"
       xlink:href="#linearGradient1641"
       id="linearGradient1651"
       x1="211.20068"
       y1="632.98846"
       x2="209.17726"
       y2="636.01892"
       gradientUnits="userSpaceOnUse" />
    <linearGradient
       gradientTransform="matrix(0.72626755,0,0,0.72626755,-136.28762,-426.88073)"
       xlink:href="#linearGradient1641"
       id="linearGradient1659"
       x1="225.86391"
       y1="630.18408"
       x2="239.54131"
       y2="630.18408"
       gradientUnits="userSpaceOnUse" />
    <linearGradient
       gradientTransform="matrix(0.72626755,0,0,0.72626755,-136.28762,-426.88073)"
       xlink:href="#linearGradient1677-3"
       id="linearGradient1690"
       x1="227.44508"
       y1="622.69269"
       x2="228.39342"
       y2="633.7641"
       gradientUnits="userSpaceOnUse" />
    <linearGradient
       inkscape:collect="always"
       xlink:href="#linearGradient3021"
       id="linearGradient3023"
       x1="-51.264446"
       y1="21.938007"
       x2="-38.724445"
       y2="24.2391"
       gradientUnits="userSpaceOnUse"
       gradientTransform="translate(-0.05084746,0.20338983)" />
  </defs>
  <metadata
     id="metadata7">
    <rdf:RDF>
      <cc:Work
         rdf:about="">
        <dc:format>image/svg+xml</dc:format>
        <dc:type
           rdf:resource="http://purl.org/dc/dcmitype/StillImage" />
        <dc:title></dc:title>
      </cc:Work>
    </rdf:RDF>
  </metadata>
  <rect
     ry="2.0695217"
     transform="rotate(-45)"
     y="17.014669"
     x="-16.926453"
     height="33.852924"
     width="33.852924"
     id="rect2223"
     style="fill:url(#linearGradient3477);fill-opacity:1;fill-rule:evenodd;stroke:none;stroke-width:0.11073384px;stroke-linecap:butt;stroke-linejoin:miter;stroke-opacity:1" />
  <rect
     ry="1.5329791"
     style="fill:url(#linearGradient3479);fill-opacity:1;fill-rule:evenodd;stroke:none;stroke-width:0.11073384px;stroke-linecap:butt;stroke-linejoin:miter;stroke-opacity:1"
     id="rect3220"
     width="32.473244"
     height="32.473244"
     x="-16.236603"
     y="17.704489"
     transform="rotate(-45)" />
  <path
     id="path1599"
     d="m 34.450125,27.080359 c 1.037524,-1.199641 4.279793,-1.102372 2.172317,1.199642 -2.107476,2.302007 -4.73371,7.035709 -6.29,7.003289 -1.556282,-0.03239 -1.232062,7e-6 -2.139897,-0.648448 -0.907834,-0.648455 6.25758,-7.554483 6.25758,-7.554483 z"
     style="fill:url(#linearGradient1659);fill-opacity:1;fill-rule:evenodd;stroke:#000000;stroke-width:0.54470062;stroke-linecap:butt;stroke-linejoin:miter;stroke-miterlimit:4;stroke-dasharray:none;stroke-opacity:1"
     inkscape:connector-curvature="0" />
  <path
     id="path1593"
     d="m 24.010029,9.7018157 c -2.486624,0.022805 -4.830979,1.1996343 -5.868503,2.5289653 -1.037524,1.329331 -1.394172,3.469228 -2.107469,5.090359 -0.713303,1.62113 -3.047731,3.566489 -3.696186,5.998192 -0.648455,2.431696 -0.259379,4.960669 0.616027,6.192724 0.875414,1.232062 -1.815668,2.788351 -2.139888,3.080159 -0.324228,0.2918 0.356647,1.199634 1.685972,1.361751 1.32933,0.16211 7.132985,0.810566 9.402571,0.810566 2.269586,0 7.74902,0.356647 8.786545,-0.745725 1.037523,-1.102372 3.33953,-3.274689 3.793448,-6.679068 0.453916,-3.404379 -2.204738,-4.766131 -3.371959,-6.549372 -1.167214,-1.783248 -0.551179,-3.858296 -0.518758,-4.247373 0.03239,-0.389069 -0.765283,-4.201625 -1.880518,-5.187627 -1.115234,-0.986003 -2.214658,-1.6763342 -4.701282,-1.6535513 z"
     style="fill:#1a1a1a;fill-opacity:1;fill-rule:evenodd;stroke:#000000;stroke-width:0.54470062;stroke-linecap:butt;stroke-linejoin:miter;stroke-miterlimit:4;stroke-dasharray:none;stroke-opacity:1"
     inkscape:connector-curvature="0" />
  <path
     id="path1601"
     d="m 26.891561,12.618426 c -2.937375,-0.453677 -3.874412,3.698016 -1.380061,3.933175 2.494351,0.235158 4.317435,-3.479497 1.380061,-3.933175 z"
     style="fill:#fdfdfd;fill-opacity:1;fill-rule:evenodd;stroke:#000000;stroke-width:0.54470062;stroke-linecap:butt;stroke-linejoin:miter;stroke-miterlimit:4;stroke-dasharray:none;stroke-opacity:1"
     inkscape:connector-curvature="0" />
  <path
     d="m 26.059991,14.183468 a 1.0213137,1.0213137 0 0 1 1.442433,-0.0022 1.0213137,1.0213137 0 0 1 0.0058,1.442425 1.0213137,1.0213137 0 0 1 -1.442403,0.0096 1.0213137,1.0213137 0 0 1 -0.01343,-1.442374"
     id="path1603"
     style="fill:#000000;fill-opacity:1;fill-rule:evenodd;stroke:none;stroke-width:0.54470062;stroke-linecap:round;stroke-linejoin:round;stroke-miterlimit:4;stroke-dasharray:none;stroke-opacity:1"
     inkscape:connector-curvature="0" />
  <path
     id="path1607"
     d="m 21.99983,10.642071 c -2.647333,0.931031 -2.918049,1.783248 -3.371966,2.528965 -0.453918,0.745724 -1.459014,3.534068 -1.750821,4.377062 -0.291807,0.842986 -0.778145,2.0102 -1.783248,3.46922 -1.005103,1.459021 -1.621131,1.7184 -1.88051,3.566497 -0.259387,1.84809 2.075048,6.387261 4.798551,7.100558 2.723504,0.713304 3.30711,0.259386 2.496545,-0.648448 -0.810566,-0.907835 -0.421489,-4.117676 -0.875414,-5.252476 0.133778,-3.448696 -1.327363,-8.306838 0.03493,-10.838163 1.022374,-1.899749 3.83536,-4.831938 2.331958,-4.303215 z"
     style="fill:url(#linearGradient1625);fill-opacity:1;fill-rule:evenodd;stroke:none;stroke-width:0.54470062;stroke-linecap:butt;stroke-linejoin:miter;stroke-miterlimit:4;stroke-dasharray:none;stroke-opacity:1"
     inkscape:connector-curvature="0" />
  <path
     id="path1609"
     d="m 34.417705,26.334642 c 0.03239,3.112573 -2.010207,5.933337 -3.209842,7.295096 -1.459021,0.745718 -3.047731,1.426594 -5.868503,0.940256 -2.745872,-0.250923 -2.162913,-5.62641 -1.060816,-8.367394 1.001908,-1.875861 2.606356,-2.732357 3.669226,-3.55353 1.112004,-0.859131 1.724005,-1.508102 3.199407,-1.15997 1.945358,1.426593 3.238107,1.732963 3.270528,4.845542 z"
     style="fill:url(#linearGradient1690);fill-opacity:1;fill-rule:evenodd;stroke:none;stroke-width:0.54470062;stroke-linecap:butt;stroke-linejoin:miter;stroke-miterlimit:4;stroke-dasharray:none;stroke-opacity:1"
     inkscape:connector-curvature="0"
     sodipodi:nodetypes="ccccscc" />
  <path
     id="path1595"
     d="m 18.43334,20.530988 c 0,0 3.696172,2.723495 4.895813,3.858289 1.199635,1.134793 4.020407,2.853193 4.085255,3.598917 0.06486,0.745724 -0.486338,0.745724 -1.718399,0.486337 -1.232063,-0.259379 -6.322422,-1.58871 -9.110773,-2.950461"
     style="fill:url(#linearGradient1617);fill-opacity:1;fill-rule:evenodd;stroke:#000000;stroke-width:0.54470062;stroke-linecap:butt;stroke-linejoin:miter;stroke-miterlimit:4;stroke-dasharray:none;stroke-opacity:1"
     inkscape:connector-curvature="0" />
  <path
     style="fill:none;fill-opacity:1;fill-rule:evenodd;stroke:#000000;stroke-width:0.54470062;stroke-linecap:butt;stroke-linejoin:miter;stroke-miterlimit:4;stroke-dasharray:none;stroke-opacity:1"
     d="m 24.010029,9.7018157 c -2.486624,0.022805 -4.830979,1.1996343 -5.868503,2.5289653 -1.037524,1.329331 -1.394172,3.469228 -2.107469,5.090359 -0.713303,1.62113 -3.047731,3.566489 -3.696186,5.998192 -0.648455,2.431696 -0.259379,4.960669 0.616027,6.192724 0.875414,1.232062 -1.815668,2.788351 -2.139888,3.080159 -0.324228,0.2918 0.356647,1.199634 1.685972,1.361751 1.32933,0.16211 7.132985,0.810566 9.402571,0.810566 2.269586,0 7.74902,0.356647 8.786545,-0.745725 1.037523,-1.102372 3.33953,-3.274689 3.793448,-6.679068 0.453916,-3.404379 -2.204738,-4.766131 -3.371959,-6.549372 -1.167214,-1.783248 -0.551179,-3.858296 -0.518758,-4.247373 0.03239,-0.389069 -0.765283,-4.201625 -1.880518,-5.187627 -1.115234,-0.986003 -2.214658,-1.6763342 -4.701282,-1.6535513 z"
     id="path1635"
     inkscape:connector-curvature="0" />
  <path
     id="path1605"
     d="m 29.943373,19.266498 c 0.972684,0.03239 6.743917,-1.102373 6.808758,-1.912938 0.06486,-0.810566 -4.052834,-1.199635 -4.863399,-1.556282 -0.810565,-0.356656 -4.750182,-1.408589 -4.701282,1.232062 0.04888,2.640643 1.783248,2.204738 2.755923,2.237158 z"
     style="fill:url(#linearGradient1643);fill-opacity:1;fill-rule:evenodd;stroke:none;stroke-width:0.54470062;stroke-linecap:butt;stroke-linejoin:miter;stroke-miterlimit:4;stroke-dasharray:none;stroke-opacity:1"
     inkscape:connector-curvature="0" />
  <path
     id="path1597"
     d="m 11.494885,28.280001 c 0.372858,0.972676 0.972676,2.139889 2.561386,3.955558 1.58871,1.815669 1.069952,3.371966 2.8532,3.436807 1.783241,0.06486 4.668854,0.259379 5.31731,-0.162118 0.648455,-0.421489 0.453917,-1.426592 -0.486338,-1.685979 -0.940255,-0.259379 -1.880518,0 -2.885621,-0.421489 -1.005096,-0.421496 -5.220048,-5.414586 -6.063034,-5.998193 -0.842986,-0.583607 -1.669769,-0.09727 -1.296903,0.875414 z"
     style="fill:url(#linearGradient1651);fill-opacity:1;fill-rule:evenodd;stroke:#000000;stroke-width:0.54470062;stroke-linecap:butt;stroke-linejoin:miter;stroke-miterlimit:4;stroke-dasharray:none;stroke-opacity:1"
     inkscape:connector-curvature="0" />
  <path
     id="path1661"
     d="m 28.464504,18.049012 c 2.051589,0.445514 4.539426,0.5962 5.914977,0.366823"
     style="fill:none;fill-rule:evenodd;stroke:#ae9300;stroke-width:0.36313379;stroke-linecap:butt;stroke-linejoin:miter;stroke-miterlimit:4;stroke-dasharray:none;stroke-opacity:1"
     inkscape:connector-curvature="0" />
  <path
     style="fill:none;fill-opacity:1;fill-rule:evenodd;stroke:#000000;stroke-width:0.54470062;stroke-linecap:butt;stroke-linejoin:miter;stroke-miterlimit:4;stroke-dasharray:none;stroke-opacity:1"
     d="m 29.943373,19.266498 c 0.972684,0.03239 6.743917,-1.102373 6.808758,-1.912938 0.06486,-0.810566 -4.052834,-1.199635 -4.863399,-1.556282 -0.810565,-0.356656 -4.750182,-1.408589 -4.701282,1.232062 0.04888,2.640643 1.783248,2.204738 2.755923,2.237158 z"
     id="path1663"
     inkscape:connector-curvature="0" />
</svg>
