<?xml version="1.0" encoding="UTF-8" standalone="no"?>
<svg
   xmlns:dc="http://purl.org/dc/elements/1.1/"
   xmlns:cc="http://creativecommons.org/ns#"
   xmlns:rdf="http://www.w3.org/1999/02/22-rdf-syntax-ns#"
   xmlns:svg="http://www.w3.org/2000/svg"
   xmlns="http://www.w3.org/2000/svg"
   xmlns:xlink="http://www.w3.org/1999/xlink"
   xmlns:sodipodi="http://sodipodi.sourceforge.net/DTD/sodipodi-0.dtd"
   xmlns:inkscape="http://www.inkscape.org/namespaces/inkscape"
   version="1.0"
   id="svg2"
   height="48"
   width="48"
   sodipodi:docname="supertux2.svg"
   inkscape:version="0.92.3 (2405546, 2018-03-11)">
  <sodipodi:namedview
     pagecolor="#ffffff"
     bordercolor="#666666"
     borderopacity="1"
     objecttolerance="10"
     gridtolerance="10"
     guidetolerance="10"
     inkscape:pageopacity="0"
     inkscape:pageshadow="2"
     inkscape:window-width="2560"
     inkscape:window-height="1391"
     id="namedview57"
     showgrid="false"
     inkscape:zoom="13.906434"
     inkscape:cx="13.199204"
     inkscape:cy="13.88969"
     inkscape:window-x="1680"
     inkscape:window-y="0"
     inkscape:window-maximized="1"
     inkscape:current-layer="svg2"
     units="px"
     showguides="true" />
  <defs
     id="defs4">
    <linearGradient
       id="linearGradient957">
      <stop
         id="stop953"
         offset="0"
         style="stop-color:#ffffff;stop-opacity:1" />
      <stop
         id="stop955"
         offset="1"
         style="stop-color:#a6a6a6;stop-opacity:0" />
    </linearGradient>
    <linearGradient
       id="linearGradient926">
      <stop
         id="stop922"
         offset="0"
         style="stop-color:#2380d5;stop-opacity:1" />
      <stop
         id="stop924"
         offset="1"
         style="stop-color:#00407c;stop-opacity:1" />
    </linearGradient>
    <linearGradient
       id="linearGradient920">
      <stop
         style="stop-color:#ffffff;stop-opacity:1"
         offset="0"
         id="stop916" />
      <stop
         id="stop939"
         offset="0.26364654"
         style="stop-color:#6bb0ee;stop-opacity:1" />
      <stop
         style="stop-color:#003668;stop-opacity:1"
         offset="1"
         id="stop918" />
    </linearGradient>
    <linearGradient
       inkscape:collect="always"
       id="linearGradient3021">
      <stop
         style="stop-color:#808080;stop-opacity:1;"
         offset="0"
         id="stop3017" />
      <stop
         style="stop-color:#808080;stop-opacity:0;"
         offset="1"
         id="stop3019" />
    </linearGradient>
    <linearGradient
       id="linearGradient1677-3">
      <stop
         style="stop-color:#fdfdfd;stop-opacity:1"
         offset="0"
         id="stop1673" />
      <stop
         style="stop-color:#a6a6a6;stop-opacity:1"
         offset="1"
         id="stop1675" />
    </linearGradient>
    <linearGradient
       id="linearGradient1641">
      <stop
         style="stop-color:#ffd700;stop-opacity:1;"
         offset="0"
         id="stop1637" />
      <stop
         style="stop-color:#998100;stop-opacity:1"
         offset="1"
         id="stop1639" />
    </linearGradient>
    <linearGradient
       id="linearGradient1623">
      <stop
         style="stop-color:#696969;stop-opacity:1;"
         offset="0"
         id="stop1619" />
      <stop
         style="stop-color:#696969;stop-opacity:0;"
         offset="1"
         id="stop1621" />
    </linearGradient>
    <linearGradient
       id="linearGradient1615">
      <stop
         style="stop-color:#151515;stop-opacity:1"
         offset="0"
         id="stop1611" />
      <stop
         style="stop-color:#000000;stop-opacity:0;"
         offset="1"
         id="stop1613" />
    </linearGradient>
    <pattern
       xlink:href="#pattern4225"
       id="pattern4230"
       patternTransform="matrix(0.2500002,0,0,0.2679014,-2.2265625e-5,-2.6171875e-6)" />
    <pattern
       xlink:href="#pattern4217"
       id="pattern4225"
       patternTransform="matrix(0.2500002,0,0,0.2679014,-1422.8572,-507.63782)" />
    <linearGradient
       id="linearGradient3224">
      <stop
         id="stop3226"
         offset="0"
         style="stop-color:#bbdfff;stop-opacity:1;" />
      <stop
         id="stop3228"
         offset="1"
         style="stop-color:#47a6ff;stop-opacity:1;" />
    </linearGradient>
    <linearGradient
       id="linearGradient3212">
      <stop
         style="stop-color:#c0e1ff;stop-opacity:1;"
         offset="0"
         id="stop3214" />
      <stop
         style="stop-color:#128dff;stop-opacity:1;"
         offset="1"
         id="stop3216" />
    </linearGradient>
    <linearGradient
       xlink:href="#linearGradient3212"
       id="linearGradient3218"
       x1="-90.15844"
       y1="485.35376"
       x2="-90.15844"
       y2="695.35144"
       gradientUnits="userSpaceOnUse" />
    <linearGradient
       xlink:href="#linearGradient3224"
       id="linearGradient3222"
       gradientUnits="userSpaceOnUse"
       x1="-194.70923"
       y1="485.85883"
       x2="18.207338"
       y2="698.77539"
       gradientTransform="matrix(0.9592449,0,0,0.9592449,-3.5760973,24.16056)" />
    <pattern
       patternUnits="userSpaceOnUse"
       width="320.00005"
       height="308.57143"
       patternTransform="translate(-1422.8572,-507.63782)"
       id="pattern4217">
      <rect
         y="142.85715"
         x="154.28577"
         height="165.71428"
         width="165.71428"
         id="rect4215"
         style="fill:#b3b3b3;fill-opacity:1;stroke:none" />
      <rect
         style="fill:#999999;fill-opacity:1;stroke:none"
         id="rect4213"
         width="165.71428"
         height="165.71428"
         x="0"
         y="142.85715" />
      <rect
         style="fill:#999999;fill-opacity:1;stroke:none"
         id="rect4211"
         width="165.71428"
         height="165.71428"
         x="154.28577"
         y="0" />
      <rect
         y="0"
         x="0"
         height="165.71428"
         width="165.71428"
         id="rect4209"
         style="fill:#b3b3b3;fill-opacity:1;stroke:none" />
    </pattern>
    <pattern
       patternUnits="userSpaceOnUse"
       width="80.000061"
       height="82.66671"
       patternTransform="translate(-1422.8572,-507.63782)"
       id="pattern4227">
      <rect
         id="rect4223"
         y="0"
         x="0"
         height="82.66671"
         width="80.000061"
         style="fill:url(#pattern4230);stroke:none" />
    </pattern>
    <linearGradient
       xlink:href="#linearGradient3212"
       id="linearGradient3477"
       gradientUnits="userSpaceOnUse"
       x1="-90.15844"
       y1="485.35376"
       x2="-90.15844"
       y2="695.35144"
       gradientTransform="matrix(0.15175718,0,0,0.15175718,13.316085,-56.023928)" />
    <linearGradient
       xlink:href="#linearGradient3224"
       id="linearGradient3479"
       gradientUnits="userSpaceOnUse"
       gradientTransform="matrix(0.1455723,0,0,0.1455723,12.773375,-52.357388)"
       x1="-194.70923"
       y1="485.85883"
       x2="18.207338"
       y2="698.77539" />
    <linearGradient
       gradientTransform="matrix(0.72626755,0,0,0.72626755,-76.999484,-426.88073)"
       xlink:href="#linearGradient1615"
       id="linearGradient1617"
       x1="213.66454"
       y1="621.00128"
       x2="211.44493"
       y2="620.15295"
       gradientUnits="userSpaceOnUse" />
    <linearGradient
       gradientTransform="matrix(0.72626755,0,0,0.72626755,-76.999484,-426.88073)"
       xlink:href="#linearGradient1623"
       id="linearGradient1625"
       x1="207.38356"
       y1="615.19177"
       x2="215.90883"
       y2="619.61139"
       gradientUnits="userSpaceOnUse" />
    <linearGradient
       gradientTransform="matrix(0.72626755,0,0,0.72626755,-76.999484,-426.88073)"
       xlink:href="#linearGradient1641"
       id="linearGradient1643"
       x1="228.806"
       y1="611.17914"
       x2="228.806"
       y2="614.41449"
       gradientUnits="userSpaceOnUse" />
    <linearGradient
       gradientTransform="matrix(0.72626755,0,0,0.72626755,-76.999484,-426.88073)"
       xlink:href="#linearGradient1641"
       id="linearGradient1651"
       x1="211.20068"
       y1="632.98846"
       x2="209.17726"
       y2="636.01892"
       gradientUnits="userSpaceOnUse" />
    <linearGradient
       gradientTransform="matrix(0.72626755,0,0,0.72626755,-76.999484,-426.88073)"
       xlink:href="#linearGradient1641"
       id="linearGradient1659"
       x1="225.86391"
       y1="630.18408"
       x2="239.54131"
       y2="630.18408"
       gradientUnits="userSpaceOnUse" />
    <linearGradient
       gradientTransform="matrix(0.72626755,0,0,0.72626755,-76.999484,-426.88073)"
       xlink:href="#linearGradient1677-3"
       id="linearGradient1690"
       x1="227.44508"
       y1="622.69269"
       x2="228.39342"
       y2="633.7641"
       gradientUnits="userSpaceOnUse" />
    <linearGradient
       inkscape:collect="always"
       xlink:href="#linearGradient3021"
       id="linearGradient3023"
       x1="-51.264446"
       y1="21.938007"
       x2="-38.724445"
       y2="24.2391"
       gradientUnits="userSpaceOnUse"
       gradientTransform="translate(-0.05084746,0.20338983)" />
    <linearGradient
       gradientTransform="matrix(0.70102501,0,0,0.70102501,48.448912,5.1459058)"
       inkscape:collect="always"
       xlink:href="#linearGradient3063"
       id="linearGradient3103"
       x1="-20.542372"
       y1="40.855934"
       x2="-23.084745"
       y2="43.296612"
       gradientUnits="userSpaceOnUse" />
    <linearGradient
       inkscape:collect="always"
       id="linearGradient3063">
      <stop
         style="stop-color:#a9a9a9;stop-opacity:1;"
         offset="0"
         id="stop3059" />
      <stop
         style="stop-color:#a9a9a9;stop-opacity:0;"
         offset="1"
         id="stop3061" />
    </linearGradient>
    <linearGradient
       gradientTransform="matrix(0.70102501,0,0,0.70102501,48.448912,5.1459058)"
       inkscape:collect="always"
       xlink:href="#linearGradient1677-3"
       id="linearGradient3091"
       x1="-27.665209"
       y1="26.670006"
       x2="-26.186441"
       y2="36.636108"
       gradientUnits="userSpaceOnUse" />
    <linearGradient
       gradientTransform="matrix(0.70102501,0,0,0.70102501,48.448912,5.1459058)"
       inkscape:collect="always"
       xlink:href="#linearGradient1641"
       id="linearGradient3073"
       x1="-23.465322"
       y1="44.578014"
       x2="-12.070152"
       y2="44.578014"
       gradientUnits="userSpaceOnUse" />
    <linearGradient
       inkscape:collect="always"
       xlink:href="#linearGradient3063"
       id="linearGradient3065"
       x1="-42.771389"
       y1="-3.1232314"
       x2="-39.251423"
       y2="0.26740336"
       gradientUnits="userSpaceOnUse"
       gradientTransform="matrix(0.59393158,0.37239944,-0.37239944,0.59393158,46.260352,18.379078)" />
    <linearGradient
       gradientTransform="matrix(0.70102501,0,0,0.70102501,48.448912,5.1459058)"
       inkscape:collect="always"
       xlink:href="#linearGradient3021"
       id="linearGradient3055"
       x1="-52.513775"
       y1="23.456799"
       x2="-50.72718"
       y2="25.210815"
       gradientUnits="userSpaceOnUse" />
    <linearGradient
       gradientTransform="matrix(0.70102501,0,0,0.70102501,48.448912,5.1459058)"
       inkscape:collect="always"
       xlink:href="#linearGradient3029"
       id="linearGradient3035"
       x1="-46.135342"
       y1="23.190022"
       x2="-43.23418"
       y2="22.644533"
       gradientUnits="userSpaceOnUse" />
    <linearGradient
       inkscape:collect="always"
       id="linearGradient3029">
      <stop
         style="stop-color:#232323;stop-opacity:1;"
         offset="0"
         id="stop3025" />
      <stop
         style="stop-color:#232323;stop-opacity:0;"
         offset="1"
         id="stop3027" />
    </linearGradient>
    <linearGradient
       y2="614.41449"
       x2="228.806"
       y1="611.17914"
       x1="228.806"
       gradientTransform="matrix(0.74455369,0,0,0.74455369,-139.99213,-444.75076)"
       gradientUnits="userSpaceOnUse"
       id="linearGradient928"
       xlink:href="#linearGradient1641"
       inkscape:collect="always" />
    <linearGradient
       gradientTransform="matrix(0.70102501,0,0,0.70102501,48.448912,5.1459058)"
       inkscape:collect="always"
       xlink:href="#linearGradient1641"
       id="linearGradient3081"
       x1="-59.612179"
       y1="51.185791"
       x2="-43.792229"
       y2="51.185791"
       gradientUnits="userSpaceOnUse" />
    <linearGradient
       inkscape:collect="always"
       xlink:href="#linearGradient1623"
       id="linearGradient898"
       x1="9.1967115"
       y1="34.349342"
       x2="9.8710985"
       y2="35.137787"
       gradientUnits="userSpaceOnUse" />
  </defs>
  <metadata
     id="metadata7">
    <rdf:RDF>
      <cc:Work
         rdf:about="">
        <dc:format>image/svg+xml</dc:format>
        <dc:type
           rdf:resource="http://purl.org/dc/dcmitype/StillImage" />
        <dc:title />
      </cc:Work>
    </rdf:RDF>
  </metadata>
  <path
     style="fill:url(#linearGradient3103);fill-opacity:1;fill-rule:evenodd;stroke:none;stroke-width:0.70102501px;stroke-linecap:butt;stroke-linejoin:miter;stroke-opacity:1"
     d="m 25.386377,28.208442 9.929588,6.553501 -1.445996,3.462839 c 0,0 -8.226663,-6.597753 -8.483592,-10.01634 z"
     id="path3095"
     inkscape:connector-curvature="0"
     sodipodi:nodetypes="cccc" />
  <rect
     ry="2.0695217"
     transform="rotate(-45)"
     y="17.014669"
     x="-16.926453"
     height="33.852924"
     width="33.852924"
     id="rect2223"
     style="fill:url(#linearGradient3477);fill-opacity:1;fill-rule:evenodd;stroke:none;stroke-width:0.11073384px;stroke-linecap:butt;stroke-linejoin:miter;stroke-opacity:1" />
  <rect
     ry="1.5329791"
     style="fill:url(#linearGradient3479);fill-opacity:1;fill-rule:evenodd;stroke:none;stroke-width:0.11073384px;stroke-linecap:butt;stroke-linejoin:miter;stroke-opacity:1"
     id="rect3220"
     width="32.473244"
     height="32.473244"
     x="-16.236603"
     y="17.704489"
     transform="rotate(-45)" />
  <path
     sodipodi:nodetypes="cssc"
     inkscape:connector-curvature="0"
     id="path930"
     d="M 26.562674,16.837578 C 30.269789,14.30676 35.735027,9.9667145 36.329497,7.9975339 36.899823,6.108331 39.252415,6.4647845 38.717735,8.6035046 38.183054,10.742225 35.260136,19.190171 30.661887,24.822134"
     style="fill:#181818;fill-opacity:1;fill-rule:evenodd;stroke:#000000;stroke-width:0.70102501px;stroke-linecap:butt;stroke-linejoin:miter;stroke-opacity:1" />
  <path
     sodipodi:nodetypes="ccccc"
     inkscape:connector-curvature="0"
     id="path899"
     d="M 7.8132241,35.979126 C 9.911465,35.36268 11.08505,32.943312 12.620625,31.428569 c 2.783121,2.554792 17.2734,7.466511 9.74166,7.591936 -3.870222,-0.222864 -6.122058,1.878902 -8.230917,3.593374 z"
     style="fill:#181818;fill-opacity:1;fill-rule:evenodd;stroke:#000000;stroke-width:0.70102501px;stroke-linecap:butt;stroke-linejoin:miter;stroke-opacity:1" />
  <path
     inkscape:connector-curvature="0"
     id="path889"
     d="m 24.000003,1.0379252 c -5.494705,0.1008207 -7.309468,4.2848606 -7.309468,6.3516756 0,2.0668151 0.678745,6.3628582 -0.984788,9.1858252 -1.099004,1.864975 -4.581231,6.28504 -5.568529,10.423714 -0.9860946,4.13363 -0.2160646,12.85458 11.241458,13.056221 11.795866,0.207596 10.985471,2.727832 10.985471,2.727832 l 4.18565,-7.996072 c -1.094394,-0.522994 -2.769129,-1.316184 -2.699645,-1.46348 2.10361,-4.459328 -3.528003,-12.750002 -4.586616,-15.976249 -1.058612,-3.226248 0.185827,-4.024161 1.042799,-5.990155 C 31.163307,9.3912407 31.511112,1.0379252 24.000003,1.0379252 Z"
     style="fill:#232323;fill-opacity:1;fill-rule:evenodd;stroke:#000000;stroke-width:0.70099998;stroke-linecap:butt;stroke-linejoin:miter;stroke-miterlimit:4;stroke-dasharray:none;stroke-opacity:1"
     sodipodi:nodetypes="cssssccsssc" />
  <path
     inkscape:connector-curvature="0"
     id="path893"
     d="m 25.613127,27.654471 c 3.075018,2.621326 10.535716,6.906187 10.838176,7.309468"
     style="fill:none;fill-rule:evenodd;stroke:#000000;stroke-width:0.70102501px;stroke-linecap:butt;stroke-linejoin:miter;stroke-opacity:1" />
  <path
     sodipodi:nodetypes="zzzzz"
     inkscape:connector-curvature="0"
     id="path895"
     d="m 8.5240944,36.123372 c -1.0381091,-0.830237 -1.9294111,0.319485 -1.3081295,1.425198 0.6212804,1.105714 5.9211401,6.425593 7.4434001,8.102315 1.522261,1.676724 4.17236,-0.77134 1.780169,-2.151387 C 14.047341,42.119452 9.5622035,36.95361 8.5240944,36.123372 Z"
     style="fill:url(#linearGradient3081);fill-opacity:1;fill-rule:evenodd;stroke:#000000;stroke-width:0.70102501px;stroke-linecap:butt;stroke-linejoin:miter;stroke-opacity:1" />
  <path
     style="fill:#232323;fill-opacity:1;fill-rule:evenodd;stroke:#000000;stroke-width:0.69999999;stroke-linecap:butt;stroke-linejoin:miter;stroke-miterlimit:4;stroke-dasharray:none;stroke-opacity:1"
     d="m 9.9447135,31.477779 c 0.4314545,1.65391 -1.5981247,3.636817 -2.681888,4.657209 -1.4096623,1.327234 0.035954,2.049411 0.5033641,2.013456 0.4674095,-0.03595 3.9426664,-1.292558 6.6392594,0.217535"
     id="path888"
     inkscape:connector-curvature="0"
     sodipodi:nodetypes="cscc" />
  <path
     style="fill:url(#linearGradient898);fill-opacity:1;fill-rule:evenodd;stroke:none;stroke-width:1px;stroke-linecap:butt;stroke-linejoin:miter;stroke-opacity:1"
     d="m 10.569915,31.372882 c -0.26601,1.786307 -1.2279942,3.271017 -3.3877118,5.351695 -0.3849787,0.37089 -0.1239829,0.471555 0.1271187,0.381356 0.699628,-0.251315 4.4850451,-2.492337 4.4120761,-2.565307 z"
     id="path890"
     inkscape:connector-curvature="0"
     sodipodi:nodetypes="csscc" />
  <path
     style="fill:#232323;fill-opacity:1;fill-rule:evenodd;stroke:none;stroke-width:1px;stroke-linecap:butt;stroke-linejoin:miter;stroke-opacity:1"
     d="m 29.285007,15.389195 c 0,0 6.898785,-5.51004 7.3617,-7.1145132 C 36.8392,7.607497 37.09614,6.9803169 38.066913,7.1870556 37.156591,7.6474474 37.342391,8.4808834 36.907378,9.0791655 34.727867,12.07669 29.680507,17.528492 29.680507,17.528492 Z"
     id="path973"
     inkscape:connector-curvature="0"
     sodipodi:nodetypes="cscscc" />
  <path
     sodipodi:nodetypes="ssss"
     inkscape:connector-curvature="0"
     style="fill:#fdfdfd;fill-opacity:1;fill-rule:evenodd;stroke:#000000;stroke-width:0.61629283;stroke-linecap:butt;stroke-linejoin:miter;stroke-miterlimit:4;stroke-dasharray:none;stroke-opacity:1"
     d="M 27.372115,4.6813724 C 25.795135,4.6633914 24.695134,6.455504 25.519058,8.5646089 25.991306,9.773489 29.096619,9.7071184 29.29377,8.4474383 29.630002,6.2991172 28.932059,4.6991574 27.372115,4.6813724 Z"
     id="path918" />
  <path
     inkscape:connector-curvature="0"
     style="fill:#000000;fill-opacity:1;fill-rule:evenodd;stroke:none;stroke-width:0.65382254;stroke-linecap:round;stroke-linejoin:round;stroke-miterlimit:4;stroke-dasharray:none;stroke-opacity:1"
     id="path920"
     d="m 27.236543,6.8615575 a 1.1130411,1.3502406 0 0 1 1.571982,-0.00292 1.1130411,1.3502406 0 0 1 0.0063,1.9069756 1.1130411,1.3502406 0 0 1 -1.57195,0.012675 1.1130411,1.3502406 0 0 1 -0.01464,-1.9069082" />
  <path
     inkscape:connector-curvature="0"
     style="fill:url(#linearGradient928);fill-opacity:1;fill-rule:evenodd;stroke:none;stroke-width:0.55841529;stroke-linecap:butt;stroke-linejoin:miter;stroke-miterlimit:4;stroke-dasharray:none;stroke-opacity:1"
     d="m 30.424261,12.629668 c 0.997172,0.03321 6.913716,-1.130128 6.98019,-1.961103 0.06649,-0.8309738 -4.154878,-1.2298375 -4.985852,-1.5954658 -0.830974,-0.3656351 -4.869783,-1.4440547 -4.819652,1.2630838 0.05011,2.70713 1.828147,2.260248 2.825314,2.293485 z"
     id="path922" />
  <path
     inkscape:connector-curvature="0"
     style="fill:none;fill-rule:evenodd;stroke:#ae9300;stroke-width:0.37227687;stroke-linecap:butt;stroke-linejoin:miter;stroke-miterlimit:4;stroke-dasharray:none;stroke-opacity:1"
     d="m 28.908155,11.381529 c 2.103245,0.456731 4.653722,0.611211 6.063906,0.376059"
     id="path924" />
  <path
     inkscape:connector-curvature="0"
     id="path926"
     d="m 30.424261,12.629668 c 0.997172,0.03321 6.913716,-1.130128 6.98019,-1.961103 0.06649,-0.8309738 -4.154878,-1.2298375 -4.985852,-1.5954658 -0.830974,-0.3656351 -4.869783,-1.4440547 -4.819652,1.2630838 0.05011,2.70713 1.828147,2.260248 2.825314,2.293485 z"
     style="fill:none;fill-opacity:1;fill-rule:evenodd;stroke:#000000;stroke-width:0.55841529;stroke-linecap:butt;stroke-linejoin:miter;stroke-miterlimit:4;stroke-dasharray:none;stroke-opacity:1" />
  <path
     style="fill:url(#linearGradient3035);fill-opacity:1;fill-rule:evenodd;stroke:none;stroke-width:0.70102501px;stroke-linecap:butt;stroke-linejoin:miter;stroke-opacity:1"
     d="M 17.372862,15.242398 C 12.422972,19.434038 4.6502786,29.452762 6.2052284,30.427028 7.5461311,31.267181 15.537742,24.338239 18.917229,23.63136"
     id="path3037"
     inkscape:connector-curvature="0"
     sodipodi:nodetypes="csc" />
  <path
     sodipodi:nodetypes="cccc"
     inkscape:connector-curvature="0"
     id="path891"
     d="m 15.437447,17.071927 c -3.134624,3.321451 -7.609922,8.594648 -9.0211057,11.453107 -1.3929432,2.204587 0.2184523,3.027166 2.1073572,1.218487 2.5655055,-1.41657 6.4109735,-4.778359 8.9316375,-5.3056"
     style="fill:none;fill-opacity:1;fill-rule:evenodd;stroke:#000000;stroke-width:0.70102501px;stroke-linecap:butt;stroke-linejoin:miter;stroke-opacity:1" />
  <path
     style="fill:url(#linearGradient3055);fill-opacity:1;fill-rule:evenodd;stroke:none;stroke-width:0.70102501px;stroke-linecap:butt;stroke-linejoin:miter;stroke-opacity:1"
     d="m 6.458702,29.955064 c 0.5560895,0.358768 2.7952876,-3.794443 5.115552,-6.40634 1.619417,-1.822959 6.261652,-5.385014 7.82014,-6.308144 1.286466,-0.762004 0.31451,-2.529294 -2.158447,-1.336265 C 15.045314,16.961143 5.18476,29.563329 6.458702,29.955064 Z"
     id="path3039"
     inkscape:connector-curvature="0"
     sodipodi:nodetypes="csssc" />
  <path
     style="fill:url(#linearGradient3065);fill-opacity:1;fill-rule:evenodd;stroke:none;stroke-width:0.70102501px;stroke-linecap:butt;stroke-linejoin:miter;stroke-opacity:1"
     d="m 17.687046,5.1815973 c -1.562142,3.909083 2.799578,-1.6585821 4.863268,-2.1316852 2.06369,-0.4731026 8.128095,1.1794154 4.922911,-0.7817898 -3.205184,-1.96120517 -8.224036,-0.995608 -9.786179,2.913475 z"
     id="path3057"
     inkscape:connector-curvature="0"
     sodipodi:nodetypes="zszz" />
  <path
     sodipodi:nodetypes="sssss"
     inkscape:connector-curvature="0"
     id="path897"
     d="m 36.717069,31.175579 c 0.139931,-1.997491 2.937523,-2.329373 2.91977,0.114537 -0.02019,2.77972 -3.784636,9.505444 -5.201941,11.184931 -1.365856,1.618523 -2.722439,0.352693 -1.764353,-1.209843 0.95765,-1.561826 3.857846,-7.396245 4.046524,-10.089625 z"
     style="fill:url(#linearGradient3073);fill-opacity:1;fill-rule:evenodd;stroke:#000000;stroke-width:0.70102501px;stroke-linecap:butt;stroke-linejoin:miter;stroke-opacity:1" />
  <path
     style="fill:url(#linearGradient3091);fill-opacity:1;fill-rule:evenodd;stroke:none;stroke-width:0.70102501px;stroke-linecap:butt;stroke-linejoin:miter;stroke-opacity:1"
     d="m 29.76927,19.722842 c -0.949818,-0.421229 -1.285108,2.038245 -2.074723,3.187344 -0.951273,1.384353 -1.867761,2.716956 -1.167518,4.906157 l 7.237068,5.023216 c 0.93328,-3.673275 -1.569319,-9.021735 -3.994827,-13.116717 z"
     id="path3083"
     inkscape:connector-curvature="0"
     sodipodi:nodetypes="csccc" />
  <path
     style="fill:#ffffff;fill-opacity:1;fill-rule:evenodd;stroke:none;stroke-width:1.77451658;stroke-linecap:round;stroke-linejoin:round;stroke-miterlimit:4;stroke-dasharray:none;stroke-opacity:1"
     id="path3093"
     sodipodi:type="arc"
     sodipodi:cx="28.007238"
     sodipodi:cy="6.9150033"
     sodipodi:rx="0.37932387"
     sodipodi:ry="0.24145766"
     sodipodi:start="3.9269908"
     sodipodi:end="3.9163618"
     sodipodi:open="true"
     d="m 27.739016,6.744267 a 0.37932387,0.24145766 0 0 1 0.535731,-4.531e-4 0.37932387,0.24145766 0 0 1 0.0021,0.341016 0.37932387,0.24145766 0 0 1 -0.53572,0.00227 0.37932387,0.24145766 0 0 1 -0.005,-0.341004" />
  <path
     style="fill:#181818;fill-opacity:1;fill-rule:evenodd;stroke:none;stroke-width:1px;stroke-linecap:butt;stroke-linejoin:miter;stroke-opacity:1"
     d="m 17.455336,24.437921 c -2.404489,2.35869 -3.942689,3.838376 -4.803044,5.095418 0.829512,3.342408 4.117147,6.134346 7.355434,5.893943 3.824668,-0.283936 9.695088,2.129298 12.890579,4.869328 l -0.686441,1.220339 c 0,0 -0.848997,-0.390601 -2.949153,-1.042373 -3.686441,-1.144067 -6.604427,-0.5482 -9.737287,-0.813558 -7.099916,-0.601375 -9.020216,-6.320301 -9.440928,-10.767325 2.578605,-2.21521 4.980448,-3.369842 7.37084,-4.455772 z"
     id="path965"
     inkscape:connector-curvature="0"
     sodipodi:nodetypes="ccsccsscc" />
  <path
     style="fill:#181818;fill-opacity:1;fill-rule:evenodd;stroke:none;stroke-width:1px;stroke-linecap:butt;stroke-linejoin:miter;stroke-opacity:1"
     d="m 17.114381,10.499372 c 0.61559,2.45943 1.764548,3.807489 5.009714,4.570219 -0.461226,0.586665 -1.072143,0.698515 -1.537542,0.50352 -0.908569,-0.380676 -3.028005,-0.599201 -4.879666,1.504142 0.959131,-1.506066 1.507447,-4.13274 1.407494,-6.577881 z"
     id="path967"
     inkscape:connector-curvature="0"
     sodipodi:nodetypes="ccscc" />
  <path
     style="fill:#181818;fill-opacity:1;fill-rule:evenodd;stroke:none;stroke-width:1px;stroke-linecap:butt;stroke-linejoin:miter;stroke-opacity:1"
     d="m 28.642011,13.987545 c -0.485209,0.753218 -1.322193,1.187838 -1.807266,1.279405 -0.559248,0.105569 0.538768,0.708169 1.716102,0.648305 -0.100919,-1.073943 0.01488,-1.385368 0.09116,-1.92771 z"
     id="path971"
     inkscape:connector-curvature="0"
     sodipodi:nodetypes="cscc" />
</svg>
