<?xml version="1.0" encoding="UTF-8" standalone="no"?>
<svg
   xmlns:dc="http://purl.org/dc/elements/1.1/"
   xmlns:cc="http://creativecommons.org/ns#"
   xmlns:rdf="http://www.w3.org/1999/02/22-rdf-syntax-ns#"
   xmlns:svg="http://www.w3.org/2000/svg"
   xmlns="http://www.w3.org/2000/svg"
   xmlns:xlink="http://www.w3.org/1999/xlink"
   xmlns:sodipodi="http://sodipodi.sourceforge.net/DTD/sodipodi-0.dtd"
   xmlns:inkscape="http://www.inkscape.org/namespaces/inkscape"
   version="1.0"
   id="svg2"
   height="256"
   width="256"
   sodipodi:docname="supertux-milestone1.svg"
   inkscape:version="0.92.3 (2405546, 2018-03-11)">
  <sodipodi:namedview
     pagecolor="#ffffff"
     bordercolor="#666666"
     borderopacity="1"
     objecttolerance="10"
     gridtolerance="10"
     guidetolerance="10"
     inkscape:pageopacity="0"
     inkscape:pageshadow="2"
     inkscape:window-width="2560"
     inkscape:window-height="1391"
     id="namedview57"
     showgrid="false"
     inkscape:zoom="3.4766083"
     inkscape:cx="141.41187"
     inkscape:cy="114.38237"
     inkscape:window-x="1680"
     inkscape:window-y="0"
     inkscape:window-maximized="1"
     inkscape:current-layer="svg2"
     units="px"
     showguides="false" />
  <defs
     id="defs4">
    <linearGradient
       inkscape:collect="always"
       id="linearGradient3021">
      <stop
         style="stop-color:#808080;stop-opacity:1;"
         offset="0"
         id="stop3017" />
      <stop
         style="stop-color:#808080;stop-opacity:0;"
         offset="1"
         id="stop3019" />
    </linearGradient>
    <linearGradient
       id="linearGradient1677-3">
      <stop
         style="stop-color:#fdfdfd;stop-opacity:1"
         offset="0"
         id="stop1673" />
      <stop
         style="stop-color:#a6a6a6;stop-opacity:1"
         offset="1"
         id="stop1675" />
    </linearGradient>
    <linearGradient
       id="linearGradient1641">
      <stop
         style="stop-color:#ffd700;stop-opacity:1;"
         offset="0"
         id="stop1637" />
      <stop
         style="stop-color:#998100;stop-opacity:1"
         offset="1"
         id="stop1639" />
    </linearGradient>
    <linearGradient
       id="linearGradient1623">
      <stop
         style="stop-color:#696969;stop-opacity:1;"
         offset="0"
         id="stop1619" />
      <stop
         style="stop-color:#696969;stop-opacity:0;"
         offset="1"
         id="stop1621" />
    </linearGradient>
    <linearGradient
       id="linearGradient1615">
      <stop
         style="stop-color:#151515;stop-opacity:1"
         offset="0"
         id="stop1611" />
      <stop
         style="stop-color:#000000;stop-opacity:0;"
         offset="1"
         id="stop1613" />
    </linearGradient>
    <pattern
       xlink:href="#pattern4225"
       id="pattern4230"
       patternTransform="matrix(0.2500002,0,0,0.2679014,-2.2265625e-5,-2.6171875e-6)" />
    <pattern
       xlink:href="#pattern4217"
       id="pattern4225"
       patternTransform="matrix(0.2500002,0,0,0.2679014,-1422.8572,-507.63782)" />
    <linearGradient
       id="linearGradient3224">
      <stop
         id="stop3226"
         offset="0"
         style="stop-color:#bbdfff;stop-opacity:1;" />
      <stop
         id="stop3228"
         offset="1"
         style="stop-color:#47a6ff;stop-opacity:1;" />
    </linearGradient>
    <linearGradient
       id="linearGradient3212">
      <stop
         style="stop-color:#c0e1ff;stop-opacity:1;"
         offset="0"
         id="stop3214" />
      <stop
         style="stop-color:#128dff;stop-opacity:1;"
         offset="1"
         id="stop3216" />
    </linearGradient>
    <linearGradient
       xlink:href="#linearGradient3212"
       id="linearGradient3218"
       x1="-90.15844"
       y1="485.35376"
       x2="-90.15844"
       y2="695.35144"
       gradientUnits="userSpaceOnUse" />
    <linearGradient
       xlink:href="#linearGradient3224"
       id="linearGradient3222"
       gradientUnits="userSpaceOnUse"
       x1="-194.70923"
       y1="485.85883"
       x2="18.207338"
       y2="698.77539"
       gradientTransform="matrix(0.9592449,0,0,0.9592449,-3.5760973,24.16056)" />
    <pattern
       patternUnits="userSpaceOnUse"
       width="320.00005"
       height="308.57143"
       patternTransform="translate(-1422.8572,-507.63782)"
       id="pattern4217">
      <rect
         y="142.85715"
         x="154.28577"
         height="165.71428"
         width="165.71428"
         id="rect4215"
         style="fill:#b3b3b3;fill-opacity:1;stroke:none" />
      <rect
         style="fill:#999999;fill-opacity:1;stroke:none"
         id="rect4213"
         width="165.71428"
         height="165.71428"
         x="0"
         y="142.85715" />
      <rect
         style="fill:#999999;fill-opacity:1;stroke:none"
         id="rect4211"
         width="165.71428"
         height="165.71428"
         x="154.28577"
         y="0" />
      <rect
         y="0"
         x="0"
         height="165.71428"
         width="165.71428"
         id="rect4209"
         style="fill:#b3b3b3;fill-opacity:1;stroke:none" />
    </pattern>
    <pattern
       patternUnits="userSpaceOnUse"
       width="80.000061"
       height="82.66671"
       patternTransform="translate(-1422.8572,-507.63782)"
       id="pattern4227">
      <rect
         id="rect4223"
         y="0"
         x="0"
         height="82.66671"
         width="80.000061"
         style="fill:url(#pattern4230);stroke:none" />
    </pattern>
    <linearGradient
       xlink:href="#linearGradient3212"
       id="linearGradient3477"
       gradientUnits="userSpaceOnUse"
       x1="-90.15844"
       y1="485.35376"
       x2="-90.15844"
       y2="695.35144"
       gradientTransform="matrix(0.83538994,0,0,0.83538994,73.27472,-314.21856)" />
    <linearGradient
       xlink:href="#linearGradient3224"
       id="linearGradient3479"
       gradientUnits="userSpaceOnUse"
       gradientTransform="matrix(0.80134353,0,0,0.80134353,70.287221,-294.03506)"
       x1="-194.70923"
       y1="485.85883"
       x2="18.207338"
       y2="698.77539" />
    <linearGradient
       gradientTransform="matrix(3.9979434,0,0,3.9979434,-754.36753,-2353.9801)"
       xlink:href="#linearGradient1615"
       id="linearGradient1617"
       x1="213.66454"
       y1="621.00128"
       x2="211.44493"
       y2="620.15295"
       gradientUnits="userSpaceOnUse" />
    <linearGradient
       gradientTransform="matrix(3.9979434,0,0,3.9979434,-754.36753,-2353.9801)"
       xlink:href="#linearGradient1623"
       id="linearGradient1625"
       x1="207.38356"
       y1="615.19177"
       x2="215.90883"
       y2="619.61139"
       gradientUnits="userSpaceOnUse" />
    <linearGradient
       gradientTransform="matrix(3.9979434,0,0,3.9979434,-754.36753,-2353.9801)"
       xlink:href="#linearGradient1641"
       id="linearGradient1643"
       x1="228.806"
       y1="611.17914"
       x2="228.806"
       y2="614.41449"
       gradientUnits="userSpaceOnUse" />
    <linearGradient
       gradientTransform="matrix(3.9979434,0,0,3.9979434,-754.36753,-2353.9801)"
       xlink:href="#linearGradient1641"
       id="linearGradient1651"
       x1="211.20068"
       y1="632.98846"
       x2="209.17726"
       y2="636.01892"
       gradientUnits="userSpaceOnUse" />
    <linearGradient
       gradientTransform="matrix(3.9979434,0,0,3.9979434,-754.36753,-2353.9801)"
       xlink:href="#linearGradient1641"
       id="linearGradient1659"
       x1="225.86391"
       y1="630.18408"
       x2="239.54131"
       y2="630.18408"
       gradientUnits="userSpaceOnUse" />
    <linearGradient
       gradientTransform="matrix(3.9979434,0,0,3.9979434,-754.36753,-2353.9801)"
       xlink:href="#linearGradient1677-3"
       id="linearGradient1690"
       x1="227.44508"
       y1="622.69269"
       x2="228.39342"
       y2="633.7641"
       gradientUnits="userSpaceOnUse" />
    <linearGradient
       inkscape:collect="always"
       xlink:href="#linearGradient3021"
       id="linearGradient3023"
       x1="-51.264446"
       y1="21.938007"
       x2="-38.724445"
       y2="24.2391"
       gradientUnits="userSpaceOnUse"
       gradientTransform="translate(-0.05084746,0.20338983)" />
  </defs>
  <metadata
     id="metadata7">
    <rdf:RDF>
      <cc:Work
         rdf:about="">
        <dc:format>image/svg+xml</dc:format>
        <dc:type
           rdf:resource="http://purl.org/dc/dcmitype/StillImage" />
        <dc:title></dc:title>
      </cc:Work>
    </rdf:RDF>
  </metadata>
  <rect
     ry="11.392262"
     transform="rotate(-45)"
     y="87.842888"
     x="-93.203819"
     height="186.35292"
     width="186.35292"
     id="rect2223"
     style="fill:url(#linearGradient3477);fill-opacity:1;fill-rule:evenodd;stroke:none;stroke-width:0.60956544px;stroke-linecap:butt;stroke-linejoin:miter;stroke-opacity:1" />
  <rect
     ry="8.4387131"
     style="fill:url(#linearGradient3479);fill-opacity:1;fill-rule:evenodd;stroke:none;stroke-width:0.60956544px;stroke-linecap:butt;stroke-linejoin:miter;stroke-opacity:1"
     id="rect3220"
     width="178.75807"
     height="178.75807"
     x="-89.406342"
     y="91.64019"
     transform="rotate(-45)" />
  <path
     id="path1599"
     d="m 185.50626,144.97604 c 5.71135,-6.60375 23.55932,-6.0683 11.95813,6.60376 -11.60119,12.67206 -26.05803,38.73004 -34.62507,38.55157 -8.56699,-0.17835 -6.78223,6e-5 -11.77966,-3.56957 -4.99743,-3.56958 34.4466,-41.58576 34.4466,-41.58576 z"
     style="fill:url(#linearGradient1659);fill-opacity:1;fill-rule:evenodd;stroke:#000000;stroke-width:2.99845719;stroke-linecap:butt;stroke-linejoin:miter;stroke-miterlimit:4;stroke-dasharray:none;stroke-opacity:1"
     inkscape:connector-curvature="0" />
  <path
     id="path1593"
     d="m 128.03583,49.310998 c -13.68832,0.125509 -26.59348,6.6037 -32.304823,13.921369 -5.711341,7.31767 -7.67461,19.09735 -11.601154,28.021314 -3.926576,8.923969 -16.77709,19.632749 -20.346692,33.018719 -3.569602,13.38597 -1.427824,27.3074 3.391093,34.08962 4.818962,6.78222 -9.994853,15.34925 -11.779613,16.95555 -1.784804,1.60629 1.963263,6.60375 9.280906,7.49619 7.317669,0.89238 39.265513,4.46195 51.759093,4.46195 12.49357,0 42.65665,1.96328 48.368,-4.10502 5.71133,-6.06836 18.38337,-18.02645 20.88209,-36.76682 2.49871,-18.74036 -12.13659,-26.23649 -18.56189,-36.05284 -6.42526,-9.8164 -3.03412,-21.239094 -2.85565,-23.380894 0.1783,-2.141689 -4.21271,-23.128995 -10.35184,-28.556708 -6.13912,-5.427769 -12.1912,-9.227884 -25.87952,-9.10243 z"
     style="fill:#1a1a1a;fill-opacity:1;fill-rule:evenodd;stroke:#000000;stroke-width:2.99845719;stroke-linecap:butt;stroke-linejoin:miter;stroke-miterlimit:4;stroke-dasharray:none;stroke-opacity:1"
     inkscape:connector-curvature="0" />
  <path
     id="path1601"
     d="m 143.89803,65.366296 c -16.16961,-2.497409 -21.32779,20.356732 -7.59693,21.651237 13.73085,1.294504 23.76653,-19.153884 7.59693,-21.651237 z"
     style="fill:#fdfdfd;fill-opacity:1;fill-rule:evenodd;stroke:#000000;stroke-width:2.99845719;stroke-linecap:butt;stroke-linejoin:miter;stroke-miterlimit:4;stroke-dasharray:none;stroke-opacity:1"
     inkscape:connector-curvature="0" />
  <path
     d="m 139.32042,73.981497 a 5.6221076,5.6221076 0 0 1 7.94028,-0.01101 5.6221076,5.6221076 0 0 1 0.0319,7.940206 5.6221076,5.6221076 0 0 1 -7.94011,0.05505 5.6221076,5.6221076 0 0 1 -0.0739,-7.93993"
     id="path1603"
     style="fill:#000000;fill-opacity:1;fill-rule:evenodd;stroke:none;stroke-width:2.99845719;stroke-linecap:round;stroke-linejoin:round;stroke-miterlimit:4;stroke-dasharray:none;stroke-opacity:1"
     inkscape:connector-curvature="0" />
  <path
     id="path1607"
     d="m 116.97012,54.486868 c -14.57298,5.125115 -16.06322,9.816399 -18.561929,13.921424 -2.498719,4.105025 -8.031551,19.454224 -9.637885,24.094754 -1.606333,4.64042 -4.283517,11.065714 -9.816389,19.097294 -5.532871,8.03159 -8.92397,9.45942 -10.351794,19.6328 -1.427869,10.17327 11.422683,35.16046 26.414969,39.08697 14.992288,3.92661 18.204918,1.42788 13.742928,-3.56958 -4.46198,-4.9974 -2.3202,-22.66687 -4.81896,-28.91369 0.73642,-18.98434 -7.306839,-45.72733 0.19228,-59.661691 5.62795,-10.457707 21.11282,-26.598769 12.83692,-23.688281 z"
     style="fill:url(#linearGradient1625);fill-opacity:1;fill-rule:evenodd;stroke:none;stroke-width:2.99845719;stroke-linecap:butt;stroke-linejoin:miter;stroke-miterlimit:4;stroke-dasharray:none;stroke-opacity:1"
     inkscape:connector-curvature="0" />
  <path
     id="path1609"
     d="m 185.3278,140.87102 c 0.1783,17.13401 -11.06575,32.66173 -17.66948,40.15792 -8.03159,4.10503 -16.77709,7.85307 -32.30482,5.17587 -15.11542,-1.38126 -11.90636,-30.97215 -5.83956,-46.06064 5.51529,-10.3262 14.34742,-15.04104 20.19829,-19.5614 6.12133,-4.72933 9.49027,-8.30176 17.61203,-6.38538 10.70877,7.85306 17.82507,9.53956 18.00354,26.67363 z"
     style="fill:url(#linearGradient1690);fill-opacity:1;fill-rule:evenodd;stroke:none;stroke-width:2.99845719;stroke-linecap:butt;stroke-linejoin:miter;stroke-miterlimit:4;stroke-dasharray:none;stroke-opacity:1"
     inkscape:connector-curvature="0"
     sodipodi:nodetypes="ccccscc" />
  <path
     id="path1595"
     d="m 97.337379,108.9232 c 0,0 20.346611,14.99221 26.950371,21.23904 6.60373,6.24677 22.13146,15.70618 22.48844,19.81121 0.35704,4.10508 -2.67719,4.10508 -9.45941,2.67719 -6.78224,-1.42783 -34.80355,-8.7455 -50.152807,-16.24163"
     style="fill:url(#linearGradient1617);fill-opacity:1;fill-rule:evenodd;stroke:#000000;stroke-width:2.99845719;stroke-linecap:butt;stroke-linejoin:miter;stroke-miterlimit:4;stroke-dasharray:none;stroke-opacity:1"
     inkscape:connector-curvature="0" />
  <path
     style="fill:none;fill-opacity:1;fill-rule:evenodd;stroke:#000000;stroke-width:2.99845719;stroke-linecap:butt;stroke-linejoin:miter;stroke-miterlimit:4;stroke-dasharray:none;stroke-opacity:1"
     d="m 128.03583,49.310998 c -13.68832,0.125509 -26.59348,6.6037 -32.304823,13.921369 -5.711341,7.31767 -7.67461,19.09735 -11.601154,28.021314 -3.926576,8.923969 -16.77709,19.632749 -20.346692,33.018719 -3.569602,13.38597 -1.427824,27.3074 3.391093,34.08962 4.818962,6.78222 -9.994853,15.34925 -11.779613,16.95555 -1.784804,1.60629 1.963263,6.60375 9.280906,7.49619 7.317669,0.89238 39.265513,4.46195 51.759093,4.46195 12.49357,0 42.65665,1.96328 48.368,-4.10502 5.71133,-6.06836 18.38337,-18.02645 20.88209,-36.76682 2.49871,-18.74036 -12.13659,-26.23649 -18.56189,-36.05284 -6.42526,-9.8164 -3.03412,-21.239094 -2.85565,-23.380894 0.1783,-2.141689 -4.21271,-23.128995 -10.35184,-28.556708 -6.13912,-5.427769 -12.1912,-9.227884 -25.87952,-9.10243 z"
     id="path1635"
     inkscape:connector-curvature="0" />
  <path
     id="path1605"
     d="m 160.69758,101.96246 c 5.35442,0.17836 37.12379,-6.068304 37.48072,-10.530314 0.35704,-4.46201 -22.30996,-6.603754 -26.77194,-8.566979 -4.46198,-1.963335 -26.14871,-7.753979 -25.87953,6.782219 0.26908,14.536144 9.81639,12.136614 15.17075,12.315074 z"
     style="fill:url(#linearGradient1643);fill-opacity:1;fill-rule:evenodd;stroke:none;stroke-width:2.99845719;stroke-linecap:butt;stroke-linejoin:miter;stroke-miterlimit:4;stroke-dasharray:none;stroke-opacity:1"
     inkscape:connector-curvature="0" />
  <path
     id="path1597"
     d="m 59.142708,151.5798 c 2.052502,5.35439 5.354368,11.77962 14.099868,21.77449 8.745499,9.99486 5.889851,18.5619 15.706239,18.91888 9.81635,0.35726 25.701015,1.42778 29.270625,-0.89243 3.5696,-2.32021 2.49871,-7.85307 -2.67718,-9.28095 -5.1759,-1.42783 -10.35184,0 -15.884715,-2.32021 -5.532833,-2.32027 -28.735218,-29.80613 -33.37567,-33.01872 -4.640453,-3.21265 -9.191712,-0.53562 -7.139167,4.81894 z"
     style="fill:url(#linearGradient1651);fill-opacity:1;fill-rule:evenodd;stroke:#000000;stroke-width:2.99845719;stroke-linecap:butt;stroke-linejoin:miter;stroke-miterlimit:4;stroke-dasharray:none;stroke-opacity:1"
     inkscape:connector-curvature="0" />
  <path
     id="path1661"
     d="m 152.55673,95.260446 c 11.29355,2.45249 24.98855,3.28195 32.56065,2.019318"
     style="fill:none;fill-rule:evenodd;stroke:#ae9300;stroke-width:1.9989717;stroke-linecap:butt;stroke-linejoin:miter;stroke-miterlimit:4;stroke-dasharray:none;stroke-opacity:1"
     inkscape:connector-curvature="0" />
  <path
     style="fill:none;fill-opacity:1;fill-rule:evenodd;stroke:#000000;stroke-width:2.99845719;stroke-linecap:butt;stroke-linejoin:miter;stroke-miterlimit:4;stroke-dasharray:none;stroke-opacity:1"
     d="m 160.69758,101.96246 c 5.35442,0.17836 37.12379,-6.068304 37.48072,-10.530314 0.35704,-4.46201 -22.30996,-6.603754 -26.77194,-8.566979 -4.46198,-1.963335 -26.14871,-7.753979 -25.87953,6.782219 0.26908,14.536144 9.81639,12.136614 15.17075,12.315074 z"
     id="path1663"
     inkscape:connector-curvature="0" />
</svg>
